Coordinates
version=1
nRows=8
nColumns=42
inDegrees=yes

Units are S.I. units (second, meters, Newtons, ...)
If the header above contains a line with 'inDegrees', this indicates whether rotational values are in degrees (yes) or radians (no).

endheader
time	pelvis_tilt	pelvis_list	pelvis_rotation	pelvis_tx	pelvis_ty	pelvis_tz	hip_flexion_r	hip_adduction_r	hip_rotation_r	knee_angle_r	knee_adduction_r	knee_angle_r_beta	ankle_angle_r	subtalar_angle_r	mtp_angle_r	hip_flexion_l	hip_adduction_l	hip_rotation_l	knee_angle_l	knee_adduction_l	knee_angle_l_beta	ankle_angle_l	subtalar_angle_l	mtp_angle_l	lumbar_extension	lumbar_bending	lumbar_rotation	arm_flex_r	arm_add_r	arm_rot_r	elbow_flex_r	pro_sup_r	wrist_flex_r	wrist_dev_r	arm_flex_l	arm_add_l	arm_rot_l	elbow_flex_l	pro_sup_l	wrist_flex_l	wrist_dev_l
      3.50000000	      1.79804626	     -2.89848670	     -1.57091612	     -0.06519207	      0.92328740	     -0.07670086	      4.14729460	     -4.29424805	    -20.86631354	     31.36366282	      4.61059841	      0.54739918	     22.42360568	     10.65866629	     -7.57047519	     24.81791583	     -8.24937044	    -18.42671724	     37.75500879	     -2.30095351	      0.65894921	     10.11568415	     -1.43724535	     -7.57047519	    -18.08804111	      6.01893029	     -3.20915263	     10.17556466	    -13.81344574	      4.77017663	     40.52126043	     90.00000001	      0.00000000	      0.00000000	    -14.04541379	    -10.06428890	     -1.66620729	     57.97050907	     90.00000001	      0.00000000	      0.00000000
      3.51000000	      1.92536020	     -2.74735879	     -1.88607707	     -0.06175993	      0.92378170	     -0.07740203	      3.68938767	     -4.35720494	    -20.30995012	     30.95192889	      4.47480189	      0.54021307	     22.46739115	     10.66998588	     -7.57018879	     24.46481052	     -7.88742655	    -18.14491532	     37.99678044	     -2.41652954	      0.66316892	     10.36131652	     -1.82807011	     -7.57018879	    -18.08787801	      5.54096532	     -3.04326531	     10.05638278	    -13.69486278	      4.75280565	     40.55704113	     90.00000001	      0.00000000	      0.00000000	    -14.02953382	    -10.11176398	     -1.72339214	     57.90482313	     90.00000001	      0.00000000	      0.00000000
      3.52000000	      2.35817750	     -2.73739847	     -2.24857746	     -0.05805039	      0.92522765	     -0.07817854	      2.61666261	     -4.40453536	    -19.28063936	     30.10495456	      5.02425796	      0.52543058	     22.14196698	      9.78983577	     -7.56727446	     23.39958167	     -7.70843079	    -17.41022426	     37.65545741	     -1.94529905	      0.65721171	      9.98175482	     -4.17621827	     -7.56727446	    -18.44233685	      5.24075932	     -2.81620191	      9.94403131	    -13.53173980	      4.47431701	     40.72862418	     90.00000001	      0.00000000	      0.00000000	    -14.02550208	    -10.07211749	     -1.75625720	     57.76351157	     90.00000001	      0.00000000	      0.00000000
      3.53000000	      2.28923784	     -2.78661212	     -2.49095304	     -0.05456909	      0.92542640	     -0.07911975	      2.45127252	     -4.42335080	    -19.23646894	     30.05171887	      4.96948412	      0.52450144	     22.13297062	      9.79063572	     -7.56720055	     23.22265095	     -7.65796829	    -17.28619586	     37.78905671	     -2.02065267	      0.65954346	     10.01250702	     -4.21261103	     -7.56720055	    -18.19020360	      5.05756286	     -2.76092709	      9.85373541	    -13.38765108	      4.50755446	     40.75045271	     90.00000001	      0.00000000	      0.00000000	    -14.14528192	    -10.05849588	     -1.76341709	     57.70207678	     90.00000001	      0.00000000	      0.00000000
      3.54000000	      2.42914243	     -2.61216542	     -2.90611252	     -0.05100535	      0.92620317	     -0.07986366	      1.87082463	     -4.62727024	    -18.65742115	     29.45116198	      5.04575214	      0.51401975	     22.08717105	      9.98265292	     -7.56623015	     22.63017917	     -7.49888000	    -17.38789975	     37.79642378	     -1.81942695	      0.65967204	     10.41898433	     -4.98987042	     -7.56623015	    -18.19190766	      4.56978495	     -2.51840264	      9.66043992	    -13.27945132	      4.49890480	     41.03241560	     90.00000001	      0.00000000	      0.00000000	    -14.14275096	    -10.01853560	     -1.97354376	     57.51826935	     90.00000001	      0.00000000	      0.00000000
      3.55000000	      2.34256625	     -2.53583895	     -3.13854694	     -0.04759709	      0.92650600	     -0.08089797	      1.64603513	     -4.76223976	    -18.63476014	     29.18872802	      4.94448875	      0.50943941	     22.03451790	      9.99611296	     -7.56600312	     22.41136857	     -7.43708418	    -17.45299399	     37.86164140	     -1.69713016	      0.66081030	     10.46638220	     -5.10826381	     -7.56600312	    -17.91947132	      4.25925496	     -2.48801453	      9.55414472	    -13.12093935	      4.53963717	     41.13867621	     90.00000001	      0.00000000	      0.00000000	    -14.24507856	    -10.01695770	     -2.02234520	     57.42176969	     90.00000001	      0.00000000	      0.00000000
      3.56000000	      2.25994418	     -2.45321268	     -3.39965020	     -0.04421715	      0.92692318	     -0.08203295	      1.38893959	     -4.92426975	    -18.58366139	     28.82464460	      4.90800706	      0.50308495	     21.94521657	     10.08906799	     -7.56575654	     22.10863879	     -7.38358313	    -17.66860240	     37.80985562	     -1.54811417	      0.65990647	     10.61605988	     -5.27901732	     -7.56575654	    -17.65937193	      3.96873207	     -2.43210080	      9.42614262	    -12.97773536	      4.58032474	     41.31085380	     90.00000001	      0.00000000	      0.00000000	    -14.32491271	     -9.99928639	     -2.11468977	     57.29595921	     90.00000001	      0.00000000	      0.00000000
      3.57000000	      2.59354508	     -2.32789784	     -3.75660469	     -0.04070162	      0.92831307	     -0.08311173	      0.48595066	     -5.19317726	    -18.28394183	     28.08102851	      5.09846905	      0.49010640	     21.66842240	     10.60006837	     -7.56461857	     21.10794526	     -7.25107975	    -18.26558220	     37.31928697	     -1.51270761	      0.65134443	     10.79045700	     -5.46304710	     -7.56461857	    -17.89789160	      3.58036583	     -2.19723886	      9.21220210	    -12.93669104	      4.68046152	     41.85540404	     90.00000001	      0.00000000	      0.00000000	    -14.20317296	     -9.83804211	     -2.44480610	     57.03035688	     90.00000001	      0.00000000	      0.00000000
